<?xml version="1.0" encoding="utf-8"?>
<!-- Generator: Adobe Illustrator 24.1.3, SVG Export Plug-In . SVG Version: 6.00 Build 0)  -->
<svg version="1.1" id="Layer_1" xmlns="http://www.w3.org/2000/svg" xmlns:xlink="http://www.w3.org/1999/xlink" x="0px" y="0px"
	 viewBox="0 0 60 60" style="enable-background:new 0 0 60 60;" xml:space="preserve">
<style type="text/css">
	.st0{fill:#6F2C90;}
	.st1{fill-rule:evenodd;clip-rule:evenodd;fill:#6F2C90;}
</style>
<rect x="1" y="11" class="st0" width="58" height="2"/>
<rect x="1" y="21" class="st0" width="58" height="2"/>
<rect x="8" y="32" class="st0" width="12" height="2"/>
<path class="st1" d="M56,4H4C2.9,4,2,4.9,2,6v34c0,1.1,0.9,2,2,2h52c1.1,0,2-0.9,2-2V6C58,4.9,57.1,4,56,4z M4,2C1.8,2,0,3.8,0,6v34
	c0,2.2,1.8,4,4,4h52c2.2,0,4-1.8,4-4V6c0-2.2-1.8-4-4-4H4z"/>
<path class="st1" d="M43,31h-2c-2.2,0-4,1.8-4,4v1h10v-1C47,32.8,45.2,31,43,31z M41,29c-3.3,0-6,2.7-6,6v3h14v-3c0-3.3-2.7-6-6-6
	H41z"/>
<path class="st0" d="M31,40.5c0-0.3,0.8-0.5,1.8-0.5h19.3c1,0,1.8,0.2,1.8,0.5v4.9c0,0.3-0.8,0.5-1.8,0.5H32.8c-1,0-1.8-0.2-1.8-0.5
	V40.5z"/>
<path class="st1" d="M52.1,38H31.9v18h20.2V38z M31.9,36c-1.1,0-1.9,0.9-1.9,2v18c0,1.1,0.9,2,1.9,2h20.2c1.1,0,1.9-0.9,1.9-2V38
	c0-1.1-0.9-2-1.9-2H31.9z"/>
<rect x="41" y="44" class="st0" width="2" height="6"/>
</svg>
