<?xml version="1.0" encoding="utf-8"?>
<!-- Generator: Adobe Illustrator 24.1.3, SVG Export Plug-In . SVG Version: 6.00 Build 0)  -->
<svg version="1.1" id="Layer_1" xmlns="http://www.w3.org/2000/svg" xmlns:xlink="http://www.w3.org/1999/xlink" x="0px" y="0px"
	 viewBox="0 0 60 60" style="enable-background:new 0 0 60 60;" xml:space="preserve">
<style type="text/css">
	.st0{fill-rule:evenodd;clip-rule:evenodd;fill:#6F2C90;}
</style>
<path class="st0" d="M8.9,2H0V0h10.6l7.2,41h32.8l7.5-29.2l1.9,0.5L52.1,43h-36L8.9,2z"/>
<path class="st0" d="M27.9,13.8l5.5,5.3l-1.5,1.4L24,12.8L31.9,5l1.5,1.4l-5.5,5.3H44V33h-2.1V13.8H27.9z"/>
<path class="st0" d="M46,57.9c2.7,0,4.9-2.2,4.9-4.9s-2.2-4.9-4.9-4.9s-4.9,2.2-4.9,4.9S43.3,57.9,46,57.9z M46,60c3.9,0,7-3.1,7-7
	s-3.1-7-7-7s-7,3.1-7,7S42.1,60,46,60z"/>
<path class="st0" d="M22,57.9c2.7,0,4.9-2.2,4.9-4.9s-2.2-4.9-4.9-4.9s-4.9,2.2-4.9,4.9S19.3,57.9,22,57.9z M22,60c3.9,0,7-3.1,7-7
	s-3.1-7-7-7s-7,3.1-7,7S18.1,60,22,60z"/>
</svg>
